<mxfile host="app.diagrams.net" modified="2024-02-14T13:42:21.936Z" agent="Mozilla/5.0 (Windows NT 10.0; Win64; x64) AppleWebKit/537.36 (KHTML, like Gecko) Chrome/121.0.0.0 Safari/537.36" version="23.1.2" etag="xoc33PbIM6D-Y5H9OpeW" type="github">
  <diagram name="Page-1" id="EqUo6qouE3fi65UfHQtc">
    <mxGraphModel>
      <root>
        <mxCell id="0" />
        <mxCell id="1" parent="0" />
      </root>
    </mxGraphModel>
  </diagram>
</mxfile>
